<?xml version="1.0" encoding="UTF-8"?>
<svg version="1.1" xmlns="http://www.w3.org/2000/svg" width="463" height="463">
<path d="M0 0 C3.70833802 0.00915167 7.41660436 -0.00496869 11.12492752 -0.01591969 C18.36678042 -0.03360293 25.60846645 -0.0299108 32.85032558 -0.01826912 C38.74175943 -0.0091946 44.63314688 -0.00802807 50.52458572 -0.01236439 C51.36663465 -0.01297732 52.20868357 -0.01359025 53.07624912 -0.01422176 C54.78744762 -0.0155008 56.49864611 -0.01679766 58.20984459 -0.01811212 C74.21404594 -0.02948805 90.21815528 -0.0164513 106.22234154 0.00508934 C119.92160568 0.0229576 133.62073418 0.01985265 147.31999588 0.0014143 C163.27126671 -0.02004541 179.22245713 -0.0283897 195.17374039 -0.01613665 C196.87825392 -0.0148626 198.58276747 -0.01360511 200.28728104 -0.01236439 C201.12569188 -0.01174729 201.96410273 -0.01113018 202.82791996 -0.01049438 C208.70469295 -0.00705674 214.58141446 -0.01283539 220.45817947 -0.0222826 C227.63088132 -0.03356087 234.80340833 -0.03034117 241.97609043 -0.00915962 C245.62794286 0.00127313 249.27950497 0.00560765 252.93135452 -0.00775623 C270.75835714 -0.06760042 287.92586361 -0.00978978 304.21843338 8.21039867 C304.91871658 8.55433666 305.61899979 8.89827465 306.34050369 9.252635 C328.08373643 20.29606574 344.12786087 39.50214023 352.65497583 62.15887958 C355.75630751 71.92189125 356.84743965 81.5147567 356.79361343 91.70901012 C356.80169174 93.58331165 356.80169174 93.58331165 356.80993325 95.49547786 C356.82165868 98.92007976 356.82019239 102.34418755 356.81276643 105.76876843 C356.80799827 109.47919752 356.8205766 113.18957657 356.83078384 116.89998913 C356.84790674 124.15225012 356.84882539 131.40442423 356.84357094 138.65670017 C356.83951555 144.55678211 356.84098898 150.45683855 356.8463192 156.35691929 C356.84706762 157.19937468 356.84781604 158.04183007 356.84858714 158.90981441 C356.85011876 160.62173751 356.85165711 162.3336606 356.85320211 164.04558369 C356.86690379 180.06978228 356.86150607 196.09393194 356.8500169 212.11812939 C356.84008859 226.74601933 356.85302238 241.3737827 356.87695109 256.00165311 C356.9013922 271.05734677 356.91093757 286.1129816 356.90429837 301.16869467 C356.90081705 309.60698356 356.90296587 318.0451752 356.92054939 326.48344898 C356.93533432 333.66719428 356.93582534 340.85077386 356.91847848 348.03451613 C356.91001718 351.69242955 356.90769786 355.35004773 356.92313004 359.00794506 C356.99306636 376.85236267 356.94698519 394.02625258 348.71843338 410.33539867 C348.37449539 411.03568188 348.0305574 411.73596508 347.67619705 412.45746899 C336.63276631 434.20070173 317.42669182 450.24482616 294.76995248 458.77194113 C285.0069408 461.8732728 275.41407535 462.96440494 265.21982193 462.91057873 C263.97028758 462.91596427 262.72075323 462.9213498 261.4333542 462.92689854 C258.00875229 462.93862397 254.58464451 462.93715768 251.16006362 462.92973173 C247.44963454 462.92496357 243.73925549 462.93754189 240.02884293 462.94774914 C232.77658193 462.96487203 225.52440783 462.96579069 218.27213188 462.96053623 C212.37204994 462.95648085 206.47199351 462.95795427 200.57191277 462.96328449 C199.72945737 462.96403291 198.88700198 462.96478134 198.01901764 462.96555244 C196.30709454 462.96708405 194.59517145 462.9686224 192.88324837 462.97016741 C176.85904977 462.98386908 160.83490011 462.97847136 144.81070266 462.96698219 C130.18281273 462.95705389 115.55504936 462.96998768 100.92717894 462.99391638 C85.87148529 463.0183575 70.81585046 463.02790287 55.76013738 463.02126366 C47.32184849 463.01778234 38.88365685 463.01993116 30.44538307 463.03751469 C23.26163777 463.05229961 16.07805819 463.05279063 8.89431592 463.03544378 C5.23640251 463.02698248 1.57878433 463.02466316 -2.07911301 463.04009533 C-19.92353062 463.11003165 -37.09742052 463.06395048 -53.40656662 454.83539867 C-54.10684982 454.49146069 -54.80713303 454.1475227 -55.52863693 453.79316235 C-78.34045224 442.20699642 -93.98627897 422.24549823 -102.59406662 398.52289867 C-104.78764071 391.50000821 -104.88292669 384.92170522 -104.86822128 377.59601879 C-104.87345796 376.30190279 -104.87869464 375.0077868 -104.88409001 373.67445517 C-104.89821364 370.09769827 -104.89993437 366.52102851 -104.8994931 362.94424772 C-104.90114634 359.08036074 -104.91422245 355.21650913 -104.92568588 351.35264111 C-104.94849752 342.9101615 -104.95645262 334.46770709 -104.96151233 326.02520084 C-104.96477435 320.74780308 -104.97129995 315.47041257 -104.97851372 310.19301891 C-104.99807602 295.56491106 -105.01448194 280.93680994 -105.01739025 266.30868816 C-105.01757782 265.37329375 -105.01776539 264.43789933 -105.01795864 263.47415963 C-105.01832488 261.57809448 -105.01868858 259.68202934 -105.01904976 257.78596419 C-105.01923257 256.8448264 -105.01941538 255.90368861 -105.01960373 254.93403149 C-105.01978428 253.99173697 -105.01996483 253.04944245 -105.02015085 252.07859355 C-105.02368977 236.82237877 -105.05069616 221.56630538 -105.08810162 206.3101396 C-105.12624863 190.6252294 -105.1455482 174.94038924 -105.14584976 159.25543165 C-105.14643296 150.45767068 -105.1548354 141.66007833 -105.18384743 132.86236095 C-105.2084472 125.36844763 -105.21558666 117.87476439 -105.2005999 110.38082153 C-105.19346547 106.56301299 -105.19413664 102.74565799 -105.2170105 98.92790127 C-105.38247543 69.59031395 -105.38247543 69.59031395 -99.59406662 56.52289867 C-99.25611289 55.72047489 -98.91815916 54.91805111 -98.56996441 54.09131145 C-94.80546273 45.77649554 -89.72848916 38.25580147 -83.59406662 31.52289867 C-82.70976974 30.5457893 -81.82547287 29.56867992 -80.91437912 28.56196117 C-58.69443515 4.81141833 -31.32102925 -0.11461883 0 0 Z M49.40593338 120.52289867 C32.01550442 140.64383706 20.08792907 166.65226837 19.40593338 193.52289867 C19.33052322 194.65018383 19.33052322 194.65018383 19.25358963 195.80024242 C18.39931234 216.33706853 26.85946109 236.79200541 36.36003494 254.55317211 C37.4284096 256.56522784 38.46273549 258.59208662 39.49187088 260.62446117 C58.9311955 298.68241779 86.20621417 333.1931447 113.89812088 365.55024242 C115.37748421 367.30381796 116.83205358 369.07978109 118.22624588 370.90180492 C121.0246836 374.57857173 121.0246836 374.57857173 125.27312088 375.99164867 C129.43623373 375.36873902 130.52948311 373.89878913 133.21843338 370.71039867 C133.64656326 370.21120922 134.07469315 369.71201977 134.51579666 369.19770336 C135.8310417 367.65395209 137.12008229 366.09116797 138.40593338 364.52289867 C139.13940994 363.64762524 139.87288651 362.7723518 140.62858963 361.87055492 C142.91596938 359.10992419 145.16275095 356.31954605 147.40593338 353.52289867 C148.3065465 352.41447742 149.20760846 351.30642074 150.10905838 350.19867992 C211.22546286 276.04034036 211.22546286 276.04034036 230.71843338 185.52289867 C227.17645841 156.01625214 212.76858568 128.41543083 189.69524002 109.46601391 C146.63666023 75.71349511 87.140033 81.88172935 49.40593338 120.52289867 Z " fill="#FEFEFE" transform="translate(104.59406661987305,0.47710132598876953)"/>
<path d="M0 0 C12.29806642 8.40123447 19.32555783 18.96274351 22.29296875 33.56640625 C23.7741545 47.04821938 20.59021449 58.87363025 12.29296875 69.56640625 C11.55046875 70.59765625 10.80796875 71.62890625 10.04296875 72.69140625 C1.67598343 81.43870908 -9.30851246 86.86623007 -21.43359375 87.76953125 C-35.03852092 87.98955703 -47.75135307 83.97920588 -57.828125 74.57421875 C-67.92704599 63.7824404 -72.12191531 51.94186863 -71.984375 37.33203125 C-71.08556603 25.12848417 -65.63518216 13.53502874 -56.6875 5.16015625 C-40.20530784 -8.10361969 -18.41913356 -10.92107919 0 0 Z " fill="#FEFEFE" transform="translate(254.70703125,149.43359375)"/>
</svg>
