<?xml version="1.0" encoding="UTF-8"?>
<svg version="1.1" xmlns="http://www.w3.org/2000/svg" width="512" height="512">
<path d="M0 0 C1.41158519 -0.00517397 2.82316747 -0.01120214 4.23474574 -0.0180068 C8.10021501 -0.03407618 11.96560986 -0.03772199 15.83110857 -0.03920174 C20.00591537 -0.0429154 24.18068411 -0.0580167 28.35546875 -0.07147217 C37.48000853 -0.0985931 46.60453067 -0.11068208 55.72910404 -0.11949348 C61.43401776 -0.12502803 67.13892476 -0.13350468 72.84383392 -0.14250183 C88.65917662 -0.16688489 104.47451395 -0.18748157 120.28987503 -0.19425201 C121.30142109 -0.19469115 122.31296715 -0.19513028 123.35516612 -0.19558272 C124.8759983 -0.19623755 124.8759983 -0.19623755 126.42755437 -0.19690561 C128.48187463 -0.19779253 130.53619488 -0.19868565 132.59051514 -0.19958496 C133.6095164 -0.20002782 134.62851766 -0.20047068 135.67839774 -0.20092696 C152.16703527 -0.20881255 168.65549546 -0.24368977 185.14406458 -0.29030401 C202.09912749 -0.33784727 219.05410168 -0.36266111 236.00923228 -0.36498785 C245.51808633 -0.36681526 255.02670949 -0.37816448 264.53549957 -0.41462708 C272.63757188 -0.44558706 280.739342 -0.45557817 288.84146228 -0.43915087 C292.96766633 -0.43139196 297.09326341 -0.43292605 301.21939087 -0.46126556 C335.42412499 -0.68248141 360.06790437 6.89389607 385.45281982 30.56213379 C403.30534714 48.80788858 414.42789561 72.60540045 414.39385986 98.16790771 C414.39903383 99.57949291 414.40506201 100.99107518 414.41186666 102.40265346 C414.42793604 106.26812272 414.43158185 110.13351757 414.4330616 113.99901628 C414.43677526 118.17382308 414.45187657 122.34859182 414.46533203 126.52337646 C414.49245296 135.64791624 414.50454195 144.77243839 414.51335335 153.89701176 C414.51888789 159.60192548 414.52736454 165.30683247 414.53636169 171.01174164 C414.56074476 186.82708434 414.58134143 202.64242166 414.58811188 218.45778275 C414.58855101 219.46932881 414.58899014 220.48087487 414.58944258 221.52307384 C414.58987914 222.53696196 414.59031569 223.55085008 414.59076548 224.59546208 C414.59165239 226.64978234 414.59254552 228.7041026 414.59344482 230.75842285 C414.59388768 231.77742411 414.59433054 232.79642537 414.59478682 233.84630546 C414.60267241 250.33494299 414.63754964 266.82340318 414.68416387 283.31197229 C414.73170713 300.26703521 414.75652097 317.22200939 414.75884771 334.17714 C414.76067512 343.68599404 414.77202434 353.19461721 414.80848694 362.70340729 C414.83944693 370.80547959 414.84943803 378.90724971 414.83301073 387.00937 C414.82525182 391.13557405 414.82678592 395.26117112 414.85512543 399.38729858 C415.07634127 433.5920327 407.49996379 458.23581209 383.83172607 483.62072754 C365.58597128 501.47325486 341.78845941 512.59580332 316.22595215 512.56176758 C314.81436696 512.56694155 313.40278468 512.57296972 311.99120641 512.57977438 C308.12573714 512.59584375 304.26034229 512.59948956 300.39484358 512.60096931 C296.22003678 512.60468298 292.04526804 512.61978428 287.8704834 512.63323975 C278.74594362 512.66036068 269.62142148 512.67244966 260.49684811 512.68126106 C254.79193439 512.68679561 249.08702739 512.69527226 243.38211823 512.70426941 C227.56677553 512.72865247 211.7514382 512.74924915 195.93607712 512.75601959 C194.92453106 512.75645872 193.912985 512.75689786 192.87078603 512.7573503 C191.34995384 512.75800513 191.34995384 512.75800513 189.79839778 512.75867319 C187.74407752 512.7595601 185.68975726 512.76045323 183.63543701 512.76135254 C182.61643575 512.7617954 181.59743449 512.76223826 180.5475544 512.76269454 C164.05891687 512.77058012 147.57045669 512.80545735 131.08188757 512.85207158 C114.12682466 512.89961485 97.17185047 512.92442869 80.21671987 512.92675543 C70.70786582 512.92858284 61.19924266 512.93993206 51.69045258 512.97639465 C43.58838027 513.00735464 35.48661015 513.01734575 27.38448986 513.00091845 C23.25828582 512.99315953 19.13268874 512.99469363 15.00656128 513.02303314 C-19.19817284 513.24424898 -43.84195222 505.66787151 -69.22686768 481.99963379 C-87.07939499 463.753879 -98.20194346 439.95636712 -98.16790771 414.39385986 C-98.17308169 412.98227467 -98.17910986 411.5706924 -98.18591452 410.15911412 C-98.20198389 406.29364485 -98.2056297 402.42825001 -98.20710945 398.56275129 C-98.21082311 394.3879445 -98.22592442 390.21317576 -98.23937988 386.03839111 C-98.26650081 376.91385134 -98.2785898 367.78932919 -98.2874012 358.66475582 C-98.29293575 352.9598421 -98.3014124 347.25493511 -98.31040955 341.55002594 C-98.33479261 325.73468324 -98.35538929 309.91934592 -98.36215973 294.10398483 C-98.36259886 293.09243877 -98.36303799 292.08089271 -98.36349043 291.03869374 C-98.36392699 290.02480562 -98.36436354 289.0109175 -98.36481333 287.96630549 C-98.36570024 285.91198524 -98.36659337 283.85766498 -98.36749268 281.80334473 C-98.36793554 280.78434347 -98.36837839 279.76534221 -98.36883467 278.71546212 C-98.37672026 262.22682459 -98.41159749 245.7383644 -98.45821172 229.24979529 C-98.50575498 212.29473237 -98.53056882 195.33975818 -98.53289557 178.38462758 C-98.53472298 168.87577354 -98.54607219 159.36715037 -98.58253479 149.85836029 C-98.61349478 141.75628799 -98.62348589 133.65451786 -98.60705858 125.55239758 C-98.59929967 121.42619353 -98.60083377 117.30059646 -98.62917328 113.17446899 C-98.85038912 78.96973488 -91.27401164 54.32595549 -67.60577393 28.94104004 C-49.36001913 11.08851272 -25.56250726 -0.03403574 0 0 Z M43.11297607 147.28088379 C46.68932213 151.45328752 50.0814006 155.37405374 53.93460083 159.22276306 C54.85157745 160.14111435 55.76855408 161.05946564 56.71331787 162.00564575 C57.71156204 163.00035219 58.70985465 163.99501002 59.70819092 164.98962402 C60.77331681 166.05446739 61.83822167 167.1195319 62.90292358 168.18479919 C65.77627557 171.05843662 68.6526875 173.92899299 71.52968168 176.79898334 C74.54237011 179.80539582 77.55220321 182.81466418 80.56234741 185.82362366 C86.25502963 191.51320503 91.95025486 197.20023372 97.64641058 202.88633734 C104.13450404 209.36323088 110.61973849 215.8429839 117.10474086 222.32297218 C130.43765281 235.64544797 143.7741298 248.96434975 157.11297607 262.28088379 C160.74831985 260.74575801 163.06930891 258.57362875 165.84594727 255.79515076 C166.30672283 255.33678961 166.76749839 254.87842846 167.24223685 254.40617758 C168.78239002 252.8716527 170.31530088 251.33009406 171.84832764 249.78845215 C172.95192994 248.6859229 174.0559651 247.58382678 175.16040039 246.48213196 C178.15639952 243.49097903 181.14611339 240.49361539 184.13461018 237.49496913 C187.25967427 234.36112557 190.39000511 231.23255109 193.51965332 228.10328674 C198.77195078 222.8500529 204.0203608 217.59296051 209.26629639 212.33337402 C215.3398865 206.24403825 221.41870778 200.15996524 227.50054193 194.07886404 C233.34424858 188.23576663 239.18509814 182.38982246 245.0243454 176.54226875 C247.51320788 174.04986693 250.00292578 171.5583242 252.49329376 169.06742668 C255.42095837 166.13876127 258.34607253 163.20757218 261.26918793 160.27436638 C262.34550773 159.19511368 263.42268757 158.11671795 264.50076294 157.0392189 C265.96548126 155.57498755 267.42711053 154.10774336 268.88793945 152.63963318 C269.70867069 151.8172261 270.52940193 150.99481901 271.37500381 150.1474905 C273.22654923 148.58397874 273.22654923 148.58397874 273.11297607 147.28088379 C197.21297607 147.28088379 121.31297607 147.28088379 43.11297607 147.28088379 Z M5.11297607 157.28088379 C3.96705513 160.93616542 3.9843993 164.37401324 3.97926331 168.18884277 C3.97699775 168.88364211 3.97473219 169.57844145 3.97239798 170.29429531 C3.96606905 172.62187297 3.96688663 174.94939223 3.9677124 177.27697754 C3.96472028 178.94593379 3.96131763 180.61488935 3.95753479 182.28384399 C3.94869742 186.81679269 3.94635683 191.34972251 3.945719 195.88267899 C3.94476971 199.66517429 3.94109129 203.44766519 3.93754691 207.23015881 C3.92940384 216.1516918 3.92696259 225.0732147 3.92767334 233.99475098 C3.92827455 243.20379889 3.9177137 252.4127883 3.90192968 261.6218214 C3.88886545 269.52508667 3.88348895 277.42833279 3.88412875 285.33160877 C3.88438401 290.05339934 3.88151742 294.77513789 3.8709507 299.49691772 C3.86128816 303.93577169 3.86117782 308.37452369 3.86846733 312.8133812 C3.86951538 314.44361393 3.8671373 316.07385295 3.86110687 317.70407486 C3.8534151 319.92714567 3.85801281 322.14986189 3.86573792 324.3729248 C3.86519315 325.61768082 3.86464838 326.86243683 3.8640871 328.14491272 C3.93746995 331.55495036 3.93746995 331.55495036 6.11297607 335.28088379 C35.15297607 306.24088379 64.19297607 277.20088379 94.11297607 247.28088379 C92.38199147 243.81891459 91.25005428 242.16844847 88.61430359 239.53497314 C87.88938217 238.80585724 87.16446075 238.07674133 86.41757202 237.32553101 C85.6221701 236.5357486 84.82676819 235.74596619 84.00726318 234.93225098 C83.16977036 234.0928598 82.33227753 233.25346863 81.46940613 232.38864136 C79.17568083 230.09184804 76.87754941 227.79957971 74.57721782 225.50940609 C72.17207735 223.11305445 69.77221573 220.71142694 67.37165833 218.31048584 C63.34246251 214.2822259 59.30941548 210.25785489 55.27386475 206.23596191 C50.60234594 201.58019445 45.93610051 196.91919483 41.27281755 192.25517917 C36.79018834 187.77194068 32.30471397 183.29156083 27.81762886 178.81278229 C25.90577346 176.90446526 23.99477681 174.99529426 22.08442497 173.08547211 C19.4218928 170.42509481 16.75610212 167.76802899 14.08929443 165.11193848 C13.29186829 164.31405914 12.49444214 163.51617981 11.67285156 162.69412231 C10.95074997 161.97628571 10.22864838 161.2584491 9.48466492 160.51885986 C8.85399077 159.88986156 8.22331663 159.26086327 7.57353115 158.61280441 C6.31927216 157.16858052 6.31927216 157.16858052 5.11297607 157.28088379 Z M310.11297607 157.28088379 C281.07297607 186.32088379 252.03297607 215.36088379 222.11297607 245.28088379 C223.84596288 248.74685741 224.97700466 250.3931222 227.61837769 253.02679443 C228.34474426 253.75591034 229.07111084 254.48502625 229.81948853 255.23623657 C230.61646149 256.02601898 231.41343445 256.81580139 232.23455811 257.6295166 C233.49320679 258.88860336 233.49320679 258.88860336 234.77728271 260.17312622 C237.07515375 262.4698435 239.37739864 264.76206475 241.6816659 267.05236149 C244.09023394 269.44841847 246.49313123 271.85014867 248.89663696 274.25128174 C253.44706564 278.79549676 258.00256806 283.33458989 262.55991733 287.87186313 C267.74881719 293.03840045 272.93203233 298.2106248 278.11477876 303.38333368 C288.77453311 314.02218862 299.44140212 324.65388386 310.11297607 335.28088379 C312.39086958 331.65095374 312.36438103 328.60270463 312.36694336 324.3729248 C312.37006334 323.67812547 312.37318332 322.98332613 312.37639785 322.26747227 C312.38437377 319.93982517 312.37805587 317.61243907 312.37176514 315.28479004 C312.37447518 313.615833 312.37803619 311.94687716 312.38238525 310.27792358 C312.39150992 305.74494881 312.38796467 301.21206498 312.38162708 296.67908859 C312.37656751 291.93770857 312.38125842 287.19633638 312.38439941 282.45495605 C312.38803918 274.49229533 312.38323968 266.5296717 312.37371826 258.5670166 C312.36283369 249.35796289 312.36635926 240.14899774 312.37737107 230.93994617 C312.38644364 223.036676 312.38772937 215.1334325 312.38249373 207.23015881 C312.37937387 202.50837439 312.37896515 197.78663161 312.38556671 193.06484985 C312.39133909 188.62598648 312.38734524 184.1872374 312.3757782 179.74838638 C312.37313104 178.11815709 312.37389766 176.4879182 312.37830353 174.85769272 C312.38375824 172.63461235 312.37692595 170.41189964 312.36694336 168.18884277 C312.36618931 166.94408676 312.36543526 165.69933075 312.36465836 164.41685486 C312.28784114 161.00690283 312.28784114 161.00690283 310.11297607 157.28088379 Z M115.71119499 271.4337759 C115.16733713 271.97817853 114.62347927 272.52258116 114.06314087 273.08348083 C113.43774414 273.70468307 112.81234741 274.32588531 112.16799927 274.96591187 C111.14085312 276.00148727 111.14085312 276.00148727 110.09295654 277.0579834 C109.37090027 277.77814133 108.64884399 278.49829926 107.90490723 279.24028015 C105.50840543 281.63306319 103.11920326 284.03299577 100.73016357 286.43322754 C99.07428802 288.09029431 97.41804362 289.74699258 95.76144409 291.40333557 C92.28648585 294.87986055 88.81492224 298.3597288 85.34588623 301.84216309 C80.8872588 306.31778721 76.42207006 310.78679353 71.95455742 315.25354671 C68.5331934 318.67518197 65.11443675 322.09941212 61.69656754 325.52453804 C60.05044148 327.17385806 58.40369864 328.8225627 56.75634384 330.47065544 C54.45976395 332.76939084 52.16650041 335.07138128 49.87420654 337.37438965 C49.18539398 338.06274902 48.49658142 338.7511084 47.78689575 339.46032715 C46.85726013 340.39636024 46.85726013 340.39636024 45.90884399 341.3513031 C45.36574018 341.89608275 44.82263638 342.44086241 44.26307487 343.00215054 C43.00152271 344.11816105 43.00152271 344.11816105 43.11297607 345.28088379 C119.01297607 345.28088379 194.91297607 345.28088379 273.11297607 345.28088379 C268.57760875 339.92418789 268.57760875 339.92418789 263.80990601 334.8575592 C263.22949554 334.27577408 262.64908508 333.69398895 262.05108643 333.09457397 C261.43680786 332.48389069 260.8225293 331.8732074 260.18963623 331.24401855 C259.52551727 330.57975357 258.86139832 329.91548859 258.17715454 329.23109436 C256.00448048 327.0591111 253.82829735 324.890681 251.65203857 322.72229004 C250.13581836 321.20793697 248.61982031 319.69336142 247.10403442 318.17857361 C243.13115905 314.20950007 239.15528877 310.24343998 235.17877197 306.27801514 C231.11465053 302.22415817 227.05338986 298.16743742 222.99188232 294.11096191 C215.03503281 286.16480853 207.07501413 278.22183802 199.11297607 270.28088379 C195.93037757 271.68597478 193.79949141 273.35009721 191.35418701 275.81262207 C190.27351959 276.89351608 190.27351959 276.89351608 189.17102051 277.99624634 C188.40420959 278.77337982 187.63739868 279.55051331 186.84735107 280.35119629 C186.05395325 281.14742401 185.26055542 281.94365173 184.44311523 282.76400757 C181.91166904 285.30664327 179.38726804 287.85614727 176.86297607 290.40588379 C175.1472899 292.13160132 173.43114946 293.85686734 171.71453857 295.58166504 C167.5087336 299.80951411 163.30869101 304.04302248 159.11297607 308.28088379 C155.93125219 306.87775581 153.81810386 305.22210678 151.38592529 302.74914551 C150.67193573 302.0285495 149.95794617 301.30795349 149.22232056 300.56552124 C148.46178375 299.78838776 147.70124695 299.01125427 146.91766357 298.21057129 C146.12900909 297.41434357 145.34035461 296.61811584 144.52780151 295.79776001 C142.00968044 293.25520357 139.4980939 290.70634022 136.98797607 288.15588379 C133.67852252 284.79346889 130.36268331 281.43754984 127.04266357 278.08557129 C126.27807831 277.30438934 125.51349304 276.5232074 124.72573853 275.71835327 C124.01805328 275.00406158 123.31036804 274.2897699 122.58123779 273.55383301 C121.9582077 272.92032928 121.33517761 272.28682556 120.69326782 271.63412476 C118.65847619 269.89168485 117.81076947 269.70698497 115.71119499 271.4337759 Z " fill="#FFFFFF" transform="translate(97.88702392578125,-0.2808837890625)"/>
</svg>
