<?xml version="1.0" encoding="UTF-8"?>
<svg version="1.1" xmlns="http://www.w3.org/2000/svg" width="512" height="512">
<path d="M0 0 C1.88579094 -0.00576172 1.88579094 -0.00576172 3.80967867 -0.01163983 C5.20227859 -0.01085964 6.59487846 -0.00998086 7.98747826 -0.00901413 C9.46888283 -0.01159853 10.95028671 -0.0146119 12.43168962 -0.01801753 C16.5037262 -0.02608209 20.57574514 -0.0278768 24.64778876 -0.028615 C29.03923181 -0.03046652 33.43066573 -0.03801439 37.8221035 -0.04475021 C47.42554426 -0.05833053 57.02898084 -0.06435788 66.6324296 -0.06876087 C72.62989357 -0.07152399 78.62735592 -0.07576149 84.6248188 -0.08026505 C101.23270186 -0.09245766 117.84058363 -0.10275677 134.44847107 -0.10614014 C135.51136833 -0.1063597 136.57426559 -0.10657927 137.66937187 -0.10680549 C138.73480259 -0.10702377 139.80023331 -0.10724204 140.89794981 -0.10746694 C143.05689216 -0.1079104 145.2158345 -0.10835696 147.37477684 -0.10880661 C148.44568524 -0.10902804 149.51659363 -0.10924947 150.6199538 -0.10947761 C167.96838113 -0.11342472 185.31676644 -0.13087615 202.66517754 -0.15416613 C220.48003612 -0.17788908 238.29487362 -0.19034243 256.10974824 -0.19150805 C266.11068789 -0.19242432 276.11157278 -0.1981644 286.11249733 -0.21632767 C294.62948819 -0.23174142 303.14640738 -0.23684161 311.66340955 -0.22858956 C316.00703259 -0.22468749 320.35051137 -0.22559097 324.69411659 -0.23964691 C328.67545337 -0.25241242 332.65653785 -0.25116519 336.63787441 -0.2390562 C338.07331063 -0.23710377 339.50876488 -0.24015654 340.94417579 -0.24890056 C365.93248178 -0.3914056 386.82736952 11.43028514 404.48073387 28.50642776 C417.9845206 42.35160236 429.90191272 62.52327474 429.92466164 82.33819389 C429.92850278 83.59538786 429.93234393 84.85258182 429.93630147 86.14787257 C429.93552127 87.54047248 429.9346425 88.93307235 429.93367577 90.32567215 C429.93626017 91.80707672 429.93927354 93.2884806 429.94267917 94.76988351 C429.95074372 98.84192009 429.95253844 102.91393904 429.95327663 106.98598266 C429.95512815 111.37742571 429.96267602 115.76885963 429.96941185 120.16029739 C429.98299216 129.76373815 429.98901951 139.36717473 429.99342251 148.97062349 C429.99618562 154.96808746 430.00042312 160.96554982 430.00492668 166.9630127 C430.0171193 183.57089575 430.0274184 200.17877752 430.03080177 216.78666496 C430.03102134 217.84956223 430.03124091 218.91245949 430.03146712 220.00756576 C430.0316854 221.07299648 430.03190368 222.13842721 430.03212857 223.23614371 C430.03257204 225.39508605 430.0330186 227.55402839 430.03346825 229.71297073 C430.03368968 230.78387913 430.03391111 231.85478752 430.03413925 232.95814769 C430.03808636 250.30657502 430.05553778 267.65496033 430.07882777 285.00337143 C430.10255072 302.81823001 430.11500407 320.63306751 430.11616969 338.44794214 C430.11708596 348.44888178 430.12282604 358.44976667 430.1409893 368.45069122 C430.15640306 376.96768209 430.16150324 385.48460128 430.1532512 394.00160344 C430.14934913 398.34522649 430.15025261 402.68870526 430.16430855 407.03231049 C430.17707406 411.01364726 430.17582682 414.99473174 430.16371784 418.9760683 C430.16176541 420.41150452 430.16481817 421.84695877 430.1735622 423.28236969 C430.31840182 448.68004604 418.14334595 469.44349799 400.85573387 487.38142776 C388.87778028 499.02870165 373.92889948 507.01019715 357.79323387 511.13142776 C357.17275893 511.30765262 356.55228399 511.48387747 355.91300678 511.66544247 C353.60575695 512.17264043 351.53160734 512.26599825 349.16983604 512.27859879 C347.78409134 512.28933174 347.78409134 512.28933174 346.37035179 512.30028152 C344.86083443 512.30431488 344.86083443 512.30431488 343.32082176 512.30842972 C341.72265366 512.31828651 341.72265366 512.31828651 340.09219933 512.32834244 C336.56676221 512.34805284 333.04136758 512.35973083 329.51589012 512.36970901 C328.31221731 512.37378454 327.1085445 512.37786007 325.86839676 512.3820591 C319.50195424 512.40290656 313.13553321 512.41721609 306.76906395 512.42659378 C300.18699056 512.43767728 293.60525346 512.47210368 287.02329922 512.51176548 C281.96615521 512.53787284 276.90909223 512.54628022 271.85188675 512.54987526 C269.42495951 512.55475357 266.99803617 512.56640269 264.57117462 512.58491325 C261.17885567 512.60918693 257.7874192 512.60836125 254.39504051 512.60139847 C253.39071983 512.61420853 252.38639915 512.62701859 251.35164452 512.64021683 C247.25769489 512.60953896 244.49551783 512.4924407 240.81812096 510.6020546 C235.89930428 504.60045552 235.35321052 498.25236609 235.40846825 490.72468948 C235.40040909 489.36678551 235.40040909 489.36678551 235.39218712 487.98144913 C235.38245133 486.02761713 235.37945219 484.07374211 235.38254356 482.11988831 C235.38705061 479.01513979 235.37293729 475.91095265 235.35414696 472.80626297 C235.31746789 466.20632693 235.30368512 459.60645065 235.29323387 453.00642776 C235.28110326 445.37264982 235.25926674 437.73914684 235.21323204 430.10549164 C235.19979573 427.06909086 235.20380916 424.03304976 235.20863914 420.99663162 C235.15785091 403.03841771 233.16670867 385.00628545 220.10964012 371.37361526 C219.67522606 370.96369339 219.240812 370.55377151 218.79323387 370.13142776 C219.12323387 369.14142776 219.45323387 368.15142776 219.79323387 367.13142776 C220.45105858 367.03643997 221.10888329 366.94145218 221.78664207 366.84358597 C250.1241051 362.69117052 275.47679923 356.54749325 298.79323387 339.13142776 C300.06553856 338.18203323 300.06553856 338.18203323 301.36354637 337.21345901 C323.99869484 318.71888649 331.66329393 286.90518632 334.48073387 259.19392776 C334.61163876 257.17465018 334.71255317 255.15333495 334.79323387 253.13142776 C334.82046532 252.45031937 334.84769676 251.76921097 334.8757534 251.06746292 C335.78432209 224.61611422 329.83372783 200.0615997 312.79323387 179.13142776 C312.218312 178.6042012 311.64339012 178.07697464 311.05104637 177.53377151 C309.79323387 176.13142776 309.79323387 176.13142776 309.91823387 172.88142776 C310.3560071 170.18100638 310.92915476 167.53721866 311.53932762 164.86970901 C315.96462282 144.94529378 313.22313508 127.48640959 306.79323387 108.13142776 C285.36396178 106.08693891 262.01847143 118.35684762 245.04323387 130.44392776 C238.51896853 134.77795931 238.51896853 134.77795931 233.73073387 133.94392776 C231.74692969 133.35516717 229.76853404 132.74811837 227.79323387 132.13142776 C224.53700986 131.38784009 221.26161714 130.75605862 217.98073387 130.13142776 C216.62697655 129.87051346 216.62697655 129.87051346 215.24587059 129.60432816 C183.80426624 123.74378047 152.31031399 125.34274453 121.17214012 132.01033401 C120.23483055 132.20337112 119.29752098 132.39640823 118.33180809 132.59529495 C116.21996159 133.04130523 114.11984161 133.54240597 112.02370262 134.05720901 C107.58280863 134.15923681 105.02074539 132.23725687 101.54323387 129.75642776 C85.56000184 119.10470893 65.46207601 108.92824671 46.04323387 107.56892776 C44.28753075 107.44324417 44.28753075 107.44324417 42.49635887 107.31502151 C41.60432762 107.25443558 40.71229637 107.19384964 39.79323387 107.13142776 C39.52510887 108.34830276 39.25698387 109.56517776 38.98073387 110.81892776 C37.85615835 115.895583 36.66947952 120.95710036 35.47682762 126.01814651 C32.37543983 140.14275261 33.07871466 153.71365772 36.91823387 167.59236526 C37.68348494 170.68753252 38.22733347 172.98832688 37.79323387 176.13142776 C36.57839012 177.84236526 36.57839012 177.84236526 34.85573387 179.50642776 C16.42304067 199.39728534 11.89610707 226.97673102 12.79323387 253.13142776 C14.2360185 283.03108655 22.74481204 315.66772034 45.41823387 336.69392776 C69.06740283 356.25615296 97.89415164 363.64262004 127.79323387 367.13142776 C127.79323387 371.56215824 127.79323387 371.56215824 125.10573387 374.25642776 C119.75707719 380.23433817 117.03562847 386.5488508 115.43263817 394.34187698 C113.57737413 403.22830105 113.57737413 403.22830105 111.22292137 405.94002151 C109.08541041 407.08926904 107.16365523 407.61277804 104.79323387 408.13142776 C103.52286278 408.56261917 103.52286278 408.56261917 102.22682762 409.00252151 C91.08815155 412.3396748 79.29207626 411.40557794 67.79323387 411.13142776 C68.45323387 411.79142776 69.11323387 412.45142776 69.79323387 413.13142776 C69.22505205 418.69960958 69.22505205 418.69960958 67.79323387 420.13142776 C64.03511056 420.42051417 61.36966696 420.36445391 57.85573387 418.94392776 C55.79323387 417.13142776 55.79323387 417.13142776 55.23073387 414.69392776 C55.93986828 411.46342656 57.42140349 410.35236635 59.79323387 408.13142776 C59.17577293 407.73052933 58.558312 407.32963089 57.92214012 406.91658401 C47.17852414 399.70511576 40.02191788 391.49311158 33.15260887 380.68220901 C29.77756668 375.48162371 26.31079441 371.09765975 20.98073387 367.75642776 C20.19053856 367.25369339 19.40034325 366.75095901 18.58620262 366.23299026 C17.99452293 365.86947464 17.40284325 365.50595901 16.79323387 365.13142776 C16.64885887 365.77080276 16.50448387 366.41017776 16.35573387 367.06892776 C15.79323387 369.13142776 15.79323387 369.13142776 14.79323387 370.13142776 C11.95963845 370.42970097 10.35538009 370.4874537 7.91823387 368.94392776 C6.79323387 367.13142776 6.79323387 367.13142776 6.98073387 364.50642776 C7.79323387 362.13142776 7.79323387 362.13142776 9.79323387 361.13142776 C5.91479889 359.35863565 2.53764763 358.74639183 -1.70676613 358.44392776 C-3.36192238 358.31437698 -3.36192238 358.31437698 -5.05051613 358.18220901 C-7.96520962 358.13531419 -10.38869502 358.43216758 -13.20676613 359.13142776 C-10.17070566 363.88298581 -7.1141197 367.43217641 -2.39426613 370.56892776 C12.26468537 380.41449221 21.11947758 395.59400718 27.42458153 411.82893753 C29.25535414 416.43016597 31.60573176 419.43608634 34.79323387 423.13142776 C34.79323387 423.79142776 34.79323387 424.45142776 34.79323387 425.13142776 C35.64401512 425.53748245 35.64401512 425.53748245 36.51198387 425.95174026 C38.87658499 427.17453057 41.05498679 428.56648881 43.29323387 430.00642776 C62.52790721 441.51915195 86.78378256 440.30486152 108.37135887 438.25252151 C109.17057762 438.21256058 109.96979637 438.17259964 110.79323387 438.13142776 C112.57128923 439.90948312 111.94861335 442.51006535 111.97023582 444.9170723 C111.98948868 446.7750293 111.98948868 446.7750293 112.00913048 448.67052078 C112.01730057 450.03508988 112.02474379 451.3996635 112.03151512 452.76424026 C112.03762841 453.79233622 112.03762841 453.79233622 112.0438652 454.84120178 C112.06475408 458.47374803 112.07903958 462.10625626 112.08839989 465.73884964 C112.09942861 469.48143047 112.1337782 473.22341081 112.17357159 476.96578026 C112.19980603 479.85011729 112.20809805 482.73431333 112.21168137 485.61875916 C112.21653526 486.99739353 112.22811512 488.37602211 112.24671936 489.75453949 C112.41852085 503.33648712 112.41852085 503.33648712 107.79323387 509.13142776 C104.88814487 511.71938454 103.08968909 512.50684671 99.2102108 512.51237869 C97.83747253 512.5250679 97.83747253 512.5250679 96.43700218 512.53801346 C95.44008354 512.53194077 94.4431649 512.52586807 93.41603661 512.51961136 C92.36022896 512.52486832 91.30442131 512.53012527 90.21661949 512.53554153 C86.71987239 512.54876301 83.22357952 512.53999113 79.72682762 512.52986526 C77.29266841 512.53188643 74.85850979 512.53479823 72.42435265 512.53856277 C67.31572788 512.54298993 62.2072603 512.53654624 57.09865379 512.52254105 C50.57100315 512.50551266 44.0437243 512.51524778 37.51608753 512.53325844 C32.4844137 512.54413992 27.45282678 512.54062883 22.42115021 512.53287506 C20.01595134 512.5308818 17.61074443 512.53330141 15.20555496 512.54031372 C11.82889115 512.54799275 8.45281342 512.53623076 5.07619286 512.51961136 C4.09344383 512.52568405 3.11069481 512.53175674 2.09816551 512.53801346 C-20.64909435 512.33218362 -41.05941704 499.07351612 -56.89426613 483.75642776 C-70.39805286 469.91125317 -82.31544498 449.73958079 -82.33819389 429.92466164 C-82.34203504 428.66746767 -82.34587618 427.41027371 -82.34983373 426.11498296 C-82.34905353 424.72238305 -82.34817476 423.32978318 -82.34720802 421.93718338 C-82.34979242 420.45577881 -82.35280579 418.97437493 -82.35621142 417.49297202 C-82.36427598 413.42093544 -82.36607069 409.34891649 -82.36680889 405.27687287 C-82.36866041 400.88542982 -82.37620828 396.4939959 -82.38294411 392.10255814 C-82.39652442 382.49911738 -82.40255177 372.8956808 -82.40695477 363.29223204 C-82.40971788 357.29476807 -82.41395538 351.29730571 -82.41845894 345.29984283 C-82.43065156 328.69195977 -82.44095066 312.08407801 -82.44433403 295.47619057 C-82.4445536 294.4132933 -82.44477316 293.35039604 -82.44499938 292.25528977 C-82.44521766 291.18985905 -82.44543594 290.12442832 -82.44566083 289.02671182 C-82.44610429 286.86776948 -82.44655086 284.70882714 -82.4470005 282.5498848 C-82.44722193 281.4789764 -82.44744336 280.40806801 -82.4476715 279.30470784 C-82.45161862 261.95628051 -82.46907004 244.6078952 -82.49236003 227.2594841 C-82.51608298 209.44462552 -82.52853632 191.62978802 -82.52970195 173.81491339 C-82.53061821 163.81397375 -82.53635829 153.81308886 -82.55452156 143.81216431 C-82.56993531 135.29517344 -82.5750355 126.77825425 -82.56678346 118.26125209 C-82.56288139 113.91762904 -82.56378487 109.57415027 -82.57784081 105.23054504 C-82.59060632 101.24920827 -82.58935908 97.26812378 -82.57725009 93.28678723 C-82.57529767 91.85135101 -82.57835043 90.41589675 -82.58709446 88.98048584 C-82.72959949 63.99217986 -70.90790876 43.09729212 -53.83176613 25.44392776 C-39.98659153 11.94014104 -19.81491915 0.02274891 0 0 Z " fill="#FFFFFF" transform="translate(82.20676612854004,-0.13142776489257813)"/>
<path d="M0 0 C3.82460872 1.24885183 5.08552404 2.52052231 7.0625 6 C7 8.6875 7 8.6875 6.0625 11 C3.0625 13 3.0625 13 0.625 12.875 C-2.52997555 11.79769128 -3.93964683 10.66380423 -5.9375 8 C-6.43790136 5.06907774 -6.34311164 3.6760194 -4.8125 1.125 C-2.9375 0 -2.9375 0 0 0 Z " fill="#FFFFFF" transform="translate(126.9375,398)"/>
<path d="M0 0 C2.0625 1.1875 2.0625 1.1875 3 3 C2.75546876 6.34192692 2.39456443 7.60543557 0 10 C-2.09375 10.265625 -2.09375 10.265625 -4.5 10.25 C-5.2940625 10.25515625 -6.088125 10.2603125 -6.90625 10.265625 C-9 10 -9 10 -11 8 C-11.35131571 5.25973747 -11.34419875 3.62386024 -10 1.1875 C-6.80327449 -0.71055577 -3.61715854 -0.54896585 0 0 Z " fill="#FFFFFF" transform="translate(170,413)"/>
<path d="M0 0 C1.875 1.1875 1.875 1.1875 3 3 C3.5 5.5 3.5 5.5 3 8 C0.24471198 10.35009861 -1.58281073 10.95909909 -5.1875 11.3125 C-8 11 -8 11 -10 9 C-10.375 6.0625 -10.375 6.0625 -10 3 C-7.09589708 -0.35088799 -4.27607914 -0.54588244 0 0 Z " fill="#FFFFFF" transform="translate(189,410)"/>
<path d="M0 0 C2.86503068 1.2843241 5.15427705 2.41598787 7 5 C7.3125 8.0625 7.3125 8.0625 7 11 C6.34 11.66 5.68 12.32 5 13 C1.57853565 12.85440577 -0.33818327 12.61769562 -2.875 10.25 C-4.23800956 7.52398089 -4.53947508 6.00564685 -4 3 C-2 1.1875 -2 1.1875 0 0 Z " fill="#FFFFFF" transform="translate(113,383)"/>
<path d="M0 0 C3.84280285 1.24631444 6.07319896 2.36048692 8 6 C7.75203633 8.16968209 7.55766393 9.44233607 6 11 C3.6875 11.375 3.6875 11.375 1 11 C-1.375 8.75 -1.375 8.75 -3 6 C-2.82560493 2.94808622 -2.18741485 2.18741485 0 0 Z " fill="#FFFFFF" transform="translate(102,370)"/>
</svg>
