<?xml version="1.0" encoding="UTF-8"?>
<svg version="1.1" xmlns="http://www.w3.org/2000/svg" width="194" height="194">
<path d="M0 0 C3.77196868 2.16583341 4.8002855 4.31231973 6.10644531 8.3894043 C6.65389404 10.06383606 6.65389404 10.06383606 7.21240234 11.77209473 C7.58059082 12.94429565 7.9487793 14.11649658 8.328125 15.32421875 C8.67794434 16.40239868 9.02776367 17.48057861 9.38818359 18.59143066 C10.69039747 22.6186529 11.96877218 26.65355216 13.25 30.6875 C16.1375 39.700625 19.025 48.71375 22 58 C45.1 58 68.2 58 92 58 C97.75862856 40.03932313 97.75862856 40.03932313 103.48730469 22.0690918 C104.2144096 19.82044959 104.94253037 17.5721355 105.671875 15.32421875 C106.04006348 14.15201782 106.40825195 12.97981689 106.78759766 11.77209473 C107.33504639 10.09766296 107.33504639 10.09766296 107.89355469 8.3894043 C108.20444031 7.41899704 108.51532593 6.44858978 108.83563232 5.44877625 C110.1690365 2.64450012 111.32864171 1.5418622 114 0 C117.2878347 -0.41097934 119.1938553 -0.48512298 122.05903625 1.23908997 C124.28325824 3.25698176 125.01198495 4.74913563 126.05541992 7.54956055 C126.40646286 8.47290695 126.7575058 9.39625336 127.1191864 10.34757996 C127.48590958 11.35049576 127.85263275 12.35341156 128.23046875 13.38671875 C128.62518875 14.43535599 129.01990875 15.48399323 129.42658997 16.56440735 C130.69202156 19.93449314 131.94000224 23.31073997 133.1875 26.6875 C134.00731378 28.87998755 134.82826651 31.07204959 135.65039062 33.26367188 C137.29349687 37.64772337 138.92442364 42.03605365 140.54833984 46.42724609 C142.17905061 50.82514445 143.84780216 55.20568194 145.54931641 59.57666016 C145.95910233 60.63907425 146.36888824 61.70148834 146.79109192 62.7960968 C147.55932691 64.78435855 148.33601749 66.76938565 149.12333679 68.75016785 C154.76810266 83.4442812 155.86308008 98.22685452 149.55078125 112.9140625 C143.73213994 124.49271901 135.18863096 131.45278029 125 139 C124.27345215 139.53995605 123.5469043 140.07991211 122.79833984 140.63623047 C119.69646736 142.93627664 116.58885807 145.22814763 113.47143555 147.50708008 C107.42228098 151.92977402 101.44916436 156.44389367 95.5 161 C88.56245903 166.307338 81.59238293 171.56546134 74.5625 176.75 C73.78777344 177.32234375 73.01304688 177.8946875 72.21484375 178.484375 C60.81305052 186.86449158 60.81305052 186.86449158 57 187.5 C50.01693999 186.33615666 43.79537796 179.84383708 38.3125 175.625 C31.42371108 170.34807256 24.50204832 165.12569212 17.5 160 C8.86347915 153.67146004 0.33091538 147.21362608 -8.16015625 140.69140625 C-11.05642007 138.46937503 -13.96878914 136.28197039 -16.93359375 134.15234375 C-29.05677472 125.37939045 -37.05875373 114.49422133 -39.59375 99.484375 C-40.78182555 87.22559544 -38.22636014 76.55943087 -33.8125 65.1875 C-33.38759277 64.06746582 -32.96268555 62.94743164 -32.52490234 61.79345703 C-31.56925704 59.28148471 -30.60926541 56.77166956 -29.64208984 54.26416016 C-28.13281943 50.3504539 -26.63788879 46.43137862 -25.14476013 42.51148987 C-23.47552155 38.13112323 -21.80070368 33.75289678 -20.125 29.375 C-19.80085114 28.52739105 -19.47670227 27.6797821 -19.14273071 26.80648804 C-18.20465742 24.35691107 -17.26304913 21.90872301 -16.3203125 19.4609375 C-15.90668205 18.37947701 -15.90668205 18.37947701 -15.48469543 17.27616882 C-14.67366665 15.17671378 -13.8437918 13.08649859 -13 11 C-12.67304138 10.1892804 -12.34608276 9.37856079 -12.00921631 8.54327393 C-11.66956848 7.73573669 -11.32992065 6.92819946 -10.97998047 6.09619141 C-10.67349579 5.36042877 -10.36701111 4.62466614 -10.05123901 3.86660767 C-7.65348793 -0.39090229 -4.43453264 -0.45250333 0 0 Z " fill="#E2472D" transform="translate(40,5)"/>
<path d="M0 0 C1.125 3.75 1.125 3.75 0 6 C0.61488281 6.04898438 1.22976562 6.09796875 1.86328125 6.1484375 C3.07564453 6.26058594 3.07564453 6.26058594 4.3125 6.375 C5.51326172 6.47941406 5.51326172 6.47941406 6.73828125 6.5859375 C9 7 9 7 12 9 C14.29422534 9.81790565 16.61010233 10.51438231 18.94140625 11.21875 C21 12 21 12 23 14 C25.06874034 14.6425235 25.06874034 14.6425235 27 15 C27 15.66 27 16.32 27 17 C27.71800781 17.25523438 28.43601563 17.51046875 29.17578125 17.7734375 C35.96866924 20.72359909 41.78356781 25.97977314 47.5 30.625 C53.05980691 35.12579607 58.82464775 39.33521945 64.59619141 43.55810547 C68.6252321 46.50755666 72.63908775 49.47175675 76.609375 52.5 C77.69001221 53.32226074 77.69001221 53.32226074 78.79248047 54.16113281 C80.14401898 55.1922949 81.49221718 56.22785548 82.83642578 57.26855469 C83.44470215 57.73165039 84.05297852 58.19474609 84.6796875 58.671875 C85.20288574 59.0750293 85.72608398 59.47818359 86.26513672 59.89355469 C88.50923286 61.3247739 90.41567386 62.31146976 93 63 C95.27777135 62.06658801 95.27777135 62.06658801 97.34375 60.2578125 C98.16697754 59.61183105 98.99020508 58.96584961 99.83837891 58.30029297 C100.71671387 57.58244629 101.59504883 56.86459961 102.5 56.125 C104.39288994 54.62977879 106.28612886 53.13499927 108.1796875 51.640625 C109.14616211 50.86783203 110.11263672 50.09503906 111.10839844 49.29882812 C115.56316045 45.75728481 120.09178195 42.31517679 124.625 38.875 C125.48931641 38.21781982 126.35363281 37.56063965 127.24414062 36.88354492 C128.97346029 35.56955344 130.70359563 34.25663471 132.43457031 32.94482422 C134.14383113 31.64905227 135.85151785 30.35120127 137.55761719 29.05126953 C147.01017934 21.8641824 156.21977594 15.08889989 167 10 C167.6703125 9.67902344 168.340625 9.35804687 169.03125 9.02734375 C171.43494162 7.94021958 173.8522377 7.04335976 176.3828125 6.30078125 C177.20523438 6.05714844 178.02765625 5.81351562 178.875 5.5625 C179.63554687 5.35753906 180.39609375 5.15257813 181.1796875 4.94140625 C183.21413025 4.15047673 183.21413025 4.15047673 183.7578125 1.90234375 C183.83773437 1.27457031 183.91765625 0.64679688 184 0 C189.73184105 16.28909248 190.77299898 31.15276293 183.50390625 47.140625 C177.24335459 59.04380374 166.58212317 66.18596416 156 74 C155.2265625 74.57266602 154.453125 75.14533203 153.65625 75.73535156 C150.55091866 78.03156574 147.44197149 80.32267758 144.32568359 82.60400391 C138.26784656 87.04213803 132.2789881 91.56494095 126.3125 96.125 C113.44588666 105.95414013 113.44588666 105.95414013 107 110.8125 C106.35973877 111.29799316 105.71947754 111.78348633 105.05981445 112.28369141 C96.40615211 118.79057309 96.40615211 118.79057309 92.0625 119.4375 C85.05979551 118.43711364 78.78222614 111.83371732 73.3125 107.625 C66.42371108 102.34807256 59.50204832 97.12569212 52.5 92 C43.86347915 85.67146004 35.33091538 79.21362608 26.83984375 72.69140625 C23.94357993 70.46937503 21.03121086 68.28197039 18.06640625 66.15234375 C5.94322528 57.37939045 -2.05875373 46.49422133 -4.59375 31.484375 C-5.67400534 20.33810394 -3.82783756 10.43955697 0 0 Z " fill="#FB6F29" transform="translate(5,73)"/>
<path d="M0 0 C6.09234426 9.13851639 6.83341695 21.4368908 5.375 32.0625 C1.33332763 52.24427191 -11.26023498 62.37237079 -27 74 C-27.85851562 74.63647461 -28.71703125 75.27294922 -29.6015625 75.92871094 C-34.42474809 79.50110773 -39.25460565 83.06380183 -44.11962891 86.57910156 C-46.19390584 88.09837714 -46.19390584 88.09837714 -48.66796875 90.4609375 C-51 92 -51 92 -53.78125 92.15234375 C-58.41778394 90.49241958 -61.72487453 87.67004816 -65.5 84.5625 C-67.08932661 83.28809249 -68.68049595 82.01597989 -70.2734375 80.74609375 C-71.06331055 80.11429199 -71.85318359 79.48249023 -72.66699219 78.83154297 C-76.07729105 76.15426565 -79.58305765 73.62429466 -83.125 71.125 C-84.0212207 70.4918689 -84.0212207 70.4918689 -84.93554688 69.84594727 C-86.28804184 68.89398956 -87.64361957 67.94641336 -89 67 C-88.40538432 61.64845892 -84.0910157 58.90463385 -80.1875 55.66796875 C-79.12806239 54.83722551 -78.06535059 54.01064671 -77 53.1875 C-76.40533936 52.72448486 -75.81067871 52.26146973 -75.19799805 51.78442383 C-73.13633875 50.1839149 -71.06898199 48.59103111 -69 47 C-68.20932129 46.3915625 -67.41864258 45.783125 -66.60400391 45.15625 C-61.311952 41.09064265 -56.00236116 37.04888124 -50.67822266 33.02539062 C-48.92056068 31.69616877 -47.16495367 30.3642243 -45.41162109 29.02929688 C-35.96927227 21.84938669 -26.76899785 15.08360046 -16 10 C-15.3296875 9.67902344 -14.659375 9.35804687 -13.96875 9.02734375 C-9.45417243 6.98552344 -4.71362234 5.50707653 0 4 C0 2.68 0 1.36 0 0 Z " fill="#FB6E29" transform="translate(188,73)"/>
<path d="M0 0 C0 0.66 0 1.32 0 2 C0.57419678 2.2686084 1.14839355 2.5372168 1.73999023 2.81396484 C4.06327314 4.03320524 6.05687052 5.40997395 8.16015625 6.9765625 C8.94914307 7.56147461 9.73812988 8.14638672 10.55102539 8.74902344 C11.37981201 9.3680957 12.20859863 9.98716797 13.0625 10.625 C14.77060596 11.89353539 16.47893829 13.16176602 18.1875 14.4296875 C19.0125 15.04295898 19.8375 15.65623047 20.6875 16.28808594 C24.45471506 19.07690688 28.25836013 21.8141118 32.06640625 24.546875 C34 26 34 26 36 28 C3.13272696 53.68235982 3.13272696 53.68235982 -1.9375 54.4375 C-9.16447092 53.40507558 -15.73536926 46.45401233 -21.375 42.125 C-23.19509648 40.73148864 -25.01540586 39.3382553 -26.8359375 37.9453125 C-28.13869629 36.94806152 -28.13869629 36.94806152 -29.46777344 35.93066406 C-32.96275109 33.26596263 -36.47733006 30.62794426 -40 28 C-36.25 25 -36.25 25 -34 25 C-34 24.34 -34 23.68 -34 23 C-32.44628906 21.63061523 -32.44628906 21.63061523 -30.265625 20.05859375 C-29.07066406 19.18871826 -29.07066406 19.18871826 -27.8515625 18.30126953 C-26.56378906 17.37870361 -26.56378906 17.37870361 -25.25 16.4375 C-23.50474432 15.17381767 -21.75995267 13.90949424 -20.015625 12.64453125 C-18.73075195 11.71568115 -18.73075195 11.71568115 -17.41992188 10.76806641 C-15.31472923 9.22995048 -13.23581429 7.66699275 -11.171875 6.07421875 C-10.6262793 5.65406494 -10.08068359 5.23391113 -9.51855469 4.80102539 C-8.0926746 3.69677067 -6.67118017 2.58685951 -5.25 1.4765625 C-3 0 -3 0 0 0 Z " fill="#FAA32D" transform="translate(99,138)"/>
</svg>
