<?xml version="1.0" encoding="UTF-8"?>
<svg version="1.1" xmlns="http://www.w3.org/2000/svg" width="512" height="512">
<path d="M0 0 C1.20201229 -0.00367669 2.40402458 -0.00735338 3.64246148 -0.01114148 C6.96677463 -0.02023134 10.29103857 -0.02486986 13.61535943 -0.02753079 C17.20594231 -0.03144942 20.79651112 -0.04102671 24.38708496 -0.04974365 C33.05321844 -0.06946574 41.71935302 -0.07956955 50.38550332 -0.08847144 C54.47405607 -0.09286193 58.56260754 -0.09822682 62.65115929 -0.10346031 C76.25582389 -0.12046948 89.86048772 -0.13496095 103.46516132 -0.14220905 C106.99217034 -0.14411872 110.51917936 -0.14603908 114.04618835 -0.147995 C115.36100117 -0.14872061 115.36100117 -0.14872061 116.70237585 -0.14946087 C130.88383673 -0.15775117 145.06521299 -0.18307254 159.24663696 -0.21557567 C173.83088721 -0.24872745 188.41509458 -0.26666519 202.99938267 -0.26985329 C211.17792874 -0.27201105 219.35635145 -0.28065136 227.53486061 -0.30631447 C234.50390267 -0.32813284 241.47279141 -0.33601768 248.44186375 -0.32634769 C251.9905042 -0.32183474 255.53882907 -0.32351097 259.08742523 -0.34310913 C279.96976324 -0.45192079 297.93286233 1.22750758 317.04203796 10.14717102 C317.65112 10.4304425 318.26020203 10.71371399 318.88774109 11.00556946 C335.52420355 18.92144671 351.49465994 30.73585996 363.04203796 45.14717102 C363.4429364 45.64684387 363.84383484 46.14651672 364.25688171 46.66133118 C375.47092199 60.81614537 384.46793706 76.58647912 389.04203796 94.14717102 C389.41017446 95.51976991 389.41017446 95.51976991 389.78574806 96.92009807 C391.74610907 104.71900926 392.47300356 111.92453108 392.42971802 119.94728088 C392.43779632 121.77742347 392.43779632 121.77742347 392.44603783 123.64453864 C392.45777188 126.99159261 392.45629278 130.33814162 392.44887102 133.68517423 C392.4441061 137.31041276 392.45667844 140.93559992 392.46688843 144.56082153 C392.48401816 151.64811802 392.48492846 158.73532561 392.47967552 165.82263741 C392.47562106 171.58878083 392.47709248 177.35489815 392.48242378 183.12104034 C392.4831722 183.9442037 392.48392063 184.76736705 392.48469173 185.61547475 C392.48622334 187.28818038 392.48776169 188.960886 392.4893067 190.63359162 C392.50301111 206.29391682 392.49760895 221.95419196 392.48612148 237.61451599 C392.47619515 251.90944453 392.48912306 266.20424353 392.51305567 280.49915209 C392.53749935 295.21129063 392.54704139 309.92336896 392.54040295 324.63552737 C392.53692191 332.88156575 392.53906848 341.12750461 392.55665398 349.37352753 C392.57144222 356.39443815 392.57192578 363.41517921 392.55458307 370.43608674 C392.54612402 374.01095968 392.54379669 377.58553058 392.55923462 381.16038704 C392.63242397 399.40466771 391.87023988 415.85604256 384.35453796 432.77217102 C384.01422546 433.55648499 383.67391296 434.34079895 383.32328796 435.14888 C378.10928539 446.83891077 371.48093547 457.49834085 363.04203796 467.14717102 C362.19770203 468.1242804 361.35336609 469.10138977 360.48344421 470.10810852 C354.54692703 476.85628391 348.27739003 482.77288064 341.04203796 488.14717102 C340.51191101 488.54645813 339.98178406 488.94574524 339.43559265 489.35713196 C319.83444992 503.93000708 296.44666255 512.30645177 272.05715942 512.28761292 C270.85232487 512.29058404 269.64749032 512.29355516 268.40614563 512.29661632 C265.07410798 512.30377356 261.74212192 512.30647383 258.41008031 512.30721378 C254.81139579 512.30907077 251.21272229 512.31662136 247.61404419 512.323349 C239.75013466 512.3369072 231.88623024 512.34295323 224.02231097 512.34735966 C219.10726041 512.35012656 214.1922118 512.35436475 209.27716255 512.35886383 C195.6553316 512.37105365 182.03350221 512.38135325 168.41166592 512.38473892 C167.10494809 512.38506827 167.10494809 512.38506827 165.77183193 512.38540427 C164.89866046 512.38562255 164.02548899 512.38584083 163.12585777 512.38606572 C161.35662552 512.38650918 159.58739326 512.38695574 157.81816101 512.3874054 C156.94056989 512.38762683 156.06297878 512.38784826 155.15879399 512.38807639 C140.94878153 512.39202175 126.73882042 512.40946904 112.52882778 512.43276492 C97.92199624 512.45651706 83.31519043 512.46894254 68.70833927 512.47010684 C60.51429607 512.47102148 52.32031979 512.47672028 44.12629509 512.49492645 C37.1469077 512.51037973 30.16760792 512.51541726 23.18820667 512.50718835 C19.63201465 512.50330014 16.07599877 512.50412103 12.5198288 512.5182457 C8.65174538 512.53346769 4.78390547 512.525064 0.915802 512.5146637 C-0.19036408 512.5227201 -1.29653015 512.53077651 -2.43621641 512.53907704 C-33.52030281 512.34485084 -62.83979322 495.91654186 -84.53511047 474.59736633 C-110.95223032 447.70148962 -120.6189093 416.01843846 -120.48086071 379.06036234 C-120.47170591 375.42564411 -120.4858309 371.79099886 -120.4967804 368.15629578 C-120.5144604 361.05882259 -120.51077298 353.96151969 -120.49912983 346.86404014 C-120.490054 341.08988292 -120.48888933 335.31577304 -120.4932251 329.54161072 C-120.49383803 328.71621396 -120.49445096 327.89081721 -120.49508247 327.04040843 C-120.49636152 325.36303193 -120.49765837 323.68565544 -120.49897283 322.00827897 C-120.51034781 306.32168763 -120.49731351 290.63519017 -120.47577137 274.94861424 C-120.45790319 261.52223985 -120.46100817 248.09600385 -120.47944641 234.66963196 C-120.50090782 219.03478694 -120.50924946 203.40002397 -120.49699736 187.76516628 C-120.49572331 186.09435464 -120.49446583 184.42354299 -120.4932251 182.75273132 C-120.492608 181.93090514 -120.49199089 181.10907896 -120.49135509 180.26234895 C-120.48791796 174.50279554 -120.49369499 168.74329466 -120.50314331 162.98374939 C-120.51442349 155.95377766 -120.51119797 148.92398431 -120.49002033 141.89403272 C-120.47959008 138.31508791 -120.47524861 134.73643926 -120.48861694 131.15749741 C-120.55114332 112.90894969 -119.78783607 96.44206305 -112.27046204 79.52217102 C-111.75999329 78.34570007 -111.75999329 78.34570007 -111.23921204 77.14546204 C-106.02520947 65.45543127 -99.39685954 54.7960012 -90.95796204 45.14717102 C-89.69145813 43.68150696 -89.69145813 43.68150696 -88.39936829 42.18623352 C-82.46285111 35.43805813 -76.1933141 29.5214614 -68.95796204 24.14717102 C-68.16277161 23.54824036 -68.16277161 23.54824036 -67.35151672 22.93721008 C-47.75876634 8.37057442 -24.37888452 -0.00401639 0 0 Z M-14.14546204 110.27217102 C-20.61108695 118.38520174 -22.83322266 127.20625295 -22.43452454 137.46748352 C-21.1591906 147.31473406 -16.62705739 155.79600531 -8.95796204 162.14717102 C1.30758601 168.39347368 11.0244652 171.10905448 23.02250671 168.49873352 C33.51380032 165.03616271 40.7702749 158.7951733 46.04203796 149.14717102 C46.38235046 148.54517883 46.72266296 147.94318665 47.07328796 147.32295227 C50.67603794 139.63374978 50.25387806 129.22169421 47.91703796 121.20967102 C44.46741093 112.65780494 37.68324638 105.2217203 29.61235046 100.82295227 C13.50181654 94.01063452 -2.40732978 97.99504289 -14.14546204 110.27217102 Z M-20.95796204 205.14717102 C-20.95796204 273.78717102 -20.95796204 342.42717102 -20.95796204 413.14717102 C2.14203796 413.14717102 25.24203796 413.14717102 49.04203796 413.14717102 C49.04203796 344.50717102 49.04203796 275.86717102 49.04203796 205.14717102 C25.94203796 205.14717102 2.84203796 205.14717102 -20.95796204 205.14717102 Z M161.04203796 223.14717102 C159.13677147 225.51998758 157.30239519 227.92113789 155.52250671 230.38935852 C155.03395203 230.96943665 154.54539734 231.54951477 154.04203796 232.14717102 C153.38203796 232.14717102 152.72203796 232.14717102 152.04203796 232.14717102 C151.71203796 223.23717102 151.38203796 214.32717102 151.04203796 205.14717102 C133.22203796 205.14717102 115.40203796 205.14717102 97.04203796 205.14717102 C97.04203796 273.78717102 97.04203796 342.42717102 97.04203796 413.14717102 C116.18203796 413.14717102 135.32203796 413.14717102 155.04203796 413.14717102 C155.07942078 404.80306946 155.11680359 396.4589679 155.15531921 387.86201477 C155.18948 381.87664905 155.22547905 375.8913163 155.26411533 369.90598011 C155.31381839 362.16860522 155.35930141 354.43128436 155.38847351 346.69380188 C155.4140843 339.90501504 155.45510656 333.11645601 155.50522423 326.32780647 C155.5218147 323.74731239 155.53337736 321.16678056 155.53965187 318.58624077 C155.64850275 277.90687106 155.64850275 277.90687106 168.41703796 264.14717102 C177.33380519 256.11034793 187.97016247 254.69672699 199.60844421 254.89717102 C208.49640581 255.54430361 216.85534389 258.5666366 222.95219421 265.23701477 C236.25497033 282.66336905 234.35561372 307.23528873 234.45610046 327.99092102 C234.47484627 330.45670698 234.49442212 332.92248676 234.51478577 335.38825989 C234.56575268 341.82586493 234.60556642 348.26349069 234.64292908 354.70118713 C234.69029279 362.45336869 234.75173644 370.20545031 234.81077576 377.95755005 C234.89855499 389.68738257 234.96862906 401.41720017 235.04203796 413.14717102 C254.18203796 413.14717102 273.32203796 413.14717102 293.04203796 413.14717102 C293.10040478 390.15010753 293.10040478 390.15010753 293.13969421 367.1530304 C293.15151409 357.76099945 293.1653307 348.36900465 293.19291687 338.977005 C293.21300713 332.13373719 293.225791 325.290499 293.23021495 318.4472025 C293.23279621 314.83206561 293.23875428 311.21701336 293.25349808 307.60190392 C293.75514274 261.17009931 293.75514274 261.17009931 272.32328796 221.33857727 C270.63286857 219.80364456 268.90496442 218.46674393 267.04203796 217.14717102 C266.36141296 216.64701477 265.68078796 216.14685852 264.97953796 215.63154602 C237.66979867 197.36354473 184.29270081 198.55834053 161.04203796 223.14717102 Z " fill="#FFFFFF" transform="translate(119.95796203613281,-0.1471710205078125)"/>
</svg>
