<?xml version="1.0" encoding="UTF-8"?>
<svg version="1.1" xmlns="http://www.w3.org/2000/svg" width="512" height="512">
<path d="M0 0 C1.88579094 -0.00576172 1.88579094 -0.00576172 3.80967867 -0.01163983 C5.20227859 -0.01085964 6.59487846 -0.00998086 7.98747826 -0.00901413 C9.46888283 -0.01159853 10.95028671 -0.0146119 12.43168962 -0.01801753 C16.5037262 -0.02608209 20.57574514 -0.0278768 24.64778876 -0.028615 C29.03923181 -0.03046652 33.43066573 -0.03801439 37.8221035 -0.04475021 C47.42554426 -0.05833053 57.02898084 -0.06435788 66.6324296 -0.06876087 C72.62989357 -0.07152399 78.62735592 -0.07576149 84.6248188 -0.08026505 C101.23270186 -0.09245766 117.84058363 -0.10275677 134.44847107 -0.10614014 C135.51136833 -0.1063597 136.57426559 -0.10657927 137.66937187 -0.10680549 C138.73480259 -0.10702377 139.80023331 -0.10724204 140.89794981 -0.10746694 C143.05689216 -0.1079104 145.2158345 -0.10835696 147.37477684 -0.10880661 C148.44568524 -0.10902804 149.51659363 -0.10924947 150.6199538 -0.10947761 C167.96838113 -0.11342472 185.31676644 -0.13087615 202.66517754 -0.15416613 C220.48003612 -0.17788908 238.29487362 -0.19034243 256.10974824 -0.19150805 C266.11068789 -0.19242432 276.11157278 -0.1981644 286.11249733 -0.21632767 C294.62948819 -0.23174142 303.14640738 -0.23684161 311.66340955 -0.22858956 C316.00703259 -0.22468749 320.35051137 -0.22559097 324.69411659 -0.23964691 C328.67545337 -0.25241242 332.65653785 -0.25116519 336.63787441 -0.2390562 C338.07331063 -0.23710377 339.50876488 -0.24015654 340.94417579 -0.24890056 C365.93248178 -0.3914056 386.82736952 11.43028514 404.48073387 28.50642776 C417.9845206 42.35160236 429.90191272 62.52327474 429.92466164 82.33819389 C429.92850278 83.59538786 429.93234393 84.85258182 429.93630147 86.14787257 C429.93552127 87.54047248 429.9346425 88.93307235 429.93367577 90.32567215 C429.93626017 91.80707672 429.93927354 93.2884806 429.94267917 94.76988351 C429.95074372 98.84192009 429.95253844 102.91393904 429.95327663 106.98598266 C429.95512815 111.37742571 429.96267602 115.76885963 429.96941185 120.16029739 C429.98299216 129.76373815 429.98901951 139.36717473 429.99342251 148.97062349 C429.99618562 154.96808746 430.00042312 160.96554982 430.00492668 166.9630127 C430.0171193 183.57089575 430.0274184 200.17877752 430.03080177 216.78666496 C430.03102134 217.84956223 430.03124091 218.91245949 430.03146712 220.00756576 C430.0316854 221.07299648 430.03190368 222.13842721 430.03212857 223.23614371 C430.03257204 225.39508605 430.0330186 227.55402839 430.03346825 229.71297073 C430.03368968 230.78387913 430.03391111 231.85478752 430.03413925 232.95814769 C430.03808636 250.30657502 430.05553778 267.65496033 430.07882777 285.00337143 C430.10255072 302.81823001 430.11500407 320.63306751 430.11616969 338.44794214 C430.11708596 348.44888178 430.12282604 358.44976667 430.1409893 368.45069122 C430.15640306 376.96768209 430.16150324 385.48460128 430.1532512 394.00160344 C430.14934913 398.34522649 430.15025261 402.68870526 430.16430855 407.03231049 C430.17707406 411.01364726 430.17582682 414.99473174 430.16371784 418.9760683 C430.16176541 420.41150452 430.16481817 421.84695877 430.1735622 423.28236969 C430.31606723 448.27067567 418.4943765 469.16556341 401.41823387 486.81892776 C387.57305927 500.32271449 367.40138689 512.24010662 347.58646774 512.26285553 C346.32927378 512.26669667 345.07207982 512.27053782 343.77678907 512.27449536 C342.38418915 512.27371517 340.99158929 512.27283639 339.59898949 512.27186966 C338.11758491 512.27445406 336.63618104 512.27746743 335.15477812 512.28087306 C331.08274154 512.28893762 327.0107226 512.29073233 322.93867898 512.29147053 C318.54723593 512.29332205 314.15580201 512.30086992 309.76436424 512.30760574 C300.16092349 512.32118606 290.5574869 512.32721341 280.95403814 512.3316164 C274.95657418 512.33437952 268.95911182 512.33861702 262.96164894 512.34312057 C246.35376588 512.35531319 229.74588411 512.3656123 213.13799667 512.36899567 C212.07509941 512.36921523 211.01220215 512.3694348 209.91709588 512.36966102 C208.85166515 512.3698793 207.78623443 512.37009757 206.68851793 512.37032247 C204.52957559 512.37076593 202.37063324 512.37121249 200.2116909 512.37166214 C199.14078251 512.37188357 198.06987411 512.372105 196.96651395 512.37233314 C179.61808661 512.37628025 162.26970131 512.39373168 144.9212902 512.41702166 C127.10643163 512.44074461 109.29159413 512.45319796 91.4767195 512.45436358 C81.47577986 512.45527985 71.47489496 512.46101993 61.47397041 512.4791832 C52.95697955 512.49459695 44.44006036 512.49969714 35.9230582 512.49144509 C31.57943515 512.48754302 27.23595637 512.4884465 22.89235115 512.50250244 C18.91101438 512.51526795 14.92992989 512.51402072 10.94859333 512.50191173 C9.51315712 512.4999593 8.07770286 512.50301207 6.64229195 512.51175609 C-18.34601404 512.65426113 -39.24090178 500.83257039 -56.89426613 483.75642776 C-70.39805286 469.91125317 -82.31544498 449.73958079 -82.33819389 429.92466164 C-82.34203504 428.66746767 -82.34587618 427.41027371 -82.34983373 426.11498296 C-82.34905353 424.72238305 -82.34817476 423.32978318 -82.34720802 421.93718338 C-82.34979242 420.45577881 -82.35280579 418.97437493 -82.35621142 417.49297202 C-82.36427598 413.42093544 -82.36607069 409.34891649 -82.36680889 405.27687287 C-82.36866041 400.88542982 -82.37620828 396.4939959 -82.38294411 392.10255814 C-82.39652442 382.49911738 -82.40255177 372.8956808 -82.40695477 363.29223204 C-82.40971788 357.29476807 -82.41395538 351.29730571 -82.41845894 345.29984283 C-82.43065156 328.69195977 -82.44095066 312.08407801 -82.44433403 295.47619057 C-82.4445536 294.4132933 -82.44477316 293.35039604 -82.44499938 292.25528977 C-82.44521766 291.18985905 -82.44543594 290.12442832 -82.44566083 289.02671182 C-82.44610429 286.86776948 -82.44655086 284.70882714 -82.4470005 282.5498848 C-82.44722193 281.4789764 -82.44744336 280.40806801 -82.4476715 279.30470784 C-82.45161862 261.95628051 -82.46907004 244.6078952 -82.49236003 227.2594841 C-82.51608298 209.44462552 -82.52853632 191.62978802 -82.52970195 173.81491339 C-82.53061821 163.81397375 -82.53635829 153.81308886 -82.55452156 143.81216431 C-82.56993531 135.29517344 -82.5750355 126.77825425 -82.56678346 118.26125209 C-82.56288139 113.91762904 -82.56378487 109.57415027 -82.57784081 105.23054504 C-82.59060632 101.24920827 -82.58935908 97.26812378 -82.57725009 93.28678723 C-82.57529767 91.85135101 -82.57835043 90.41589675 -82.58709446 88.98048584 C-82.72959949 63.99217986 -70.90790876 43.09729212 -53.83176613 25.44392776 C-39.98659153 11.94014104 -19.81491915 0.02274891 0 0 Z M48.79323387 91.13142776 C47.35077293 91.54715042 47.35077293 91.54715042 45.87917137 91.97127151 C31.24297757 97.01262716 23.14542425 109.21076974 16.63307762 122.43611526 C1.24122538 155.00345544 3.29395199 182.7790652 15.14827538 216.04283524 C24.05373075 240.72148943 34.51089597 264.67936224 49.79323387 286.13142776 C50.29339012 286.83380569 50.79354637 287.53618362 51.30885887 288.25984573 C58.98939769 298.99330901 66.97251578 309.3127016 75.79323387 319.13142776 C76.25342918 319.64801956 76.7136245 320.16461136 77.18776512 320.69685745 C83.58251152 327.85266874 90.27262492 334.70671282 97.04323387 341.50642776 C98.16012596 342.63032913 98.16012596 342.63032913 99.29958153 343.77693558 C103.96883209 348.4326942 108.7709846 352.85990143 113.79323387 357.13142776 C114.44066551 357.68556351 115.08809715 358.23969925 115.75514793 358.81062698 C134.98696326 375.16670126 155.9221698 389.43224291 178.80983543 400.19734573 C180.10717337 400.80832739 181.40098881 401.42685985 182.69069481 402.05379105 C193.52839418 407.31171227 204.77005004 411.41138912 216.10573387 415.44392776 C216.83298668 415.70468094 217.56023949 415.96543411 218.30953026 416.2340889 C250.05372433 427.57353853 277.08482094 427.51640444 307.70729637 413.35408401 C316.75072469 408.95924303 323.8657725 403.3892927 330.79323387 396.13142776 C331.34624168 395.56037308 331.8992495 394.98931839 332.46901512 394.40095901 C340.3504949 384.90902207 342.71014935 368.7626659 343.35573387 356.88142776 C343.41889793 355.74189651 343.482062 354.60236526 343.54714012 353.42830276 C342.28455162 347.90693127 338.29981387 345.74374771 333.71632957 342.79549026 C331.39314824 341.39736837 329.04002587 340.07035774 326.66823387 338.75642776 C325.77515526 338.25312943 324.88207664 337.74983109 323.96193504 337.23128128 C318.52801017 334.17961557 313.06595133 331.17931996 307.60182762 328.18220901 C306.98770012 327.84514435 306.37357262 327.50807968 305.74083519 327.16080093 C305.12294121 326.82167175 304.50504723 326.48254257 303.86842918 326.13313675 C303.24794701 325.79257248 302.62746483 325.45200821 301.98818016 325.10112381 C300.73417432 324.4135186 299.47969854 323.72676974 298.22475243 323.04088211 C289.7523553 318.40827447 281.39577266 313.64278551 273.33351707 308.3167305 C269.18116397 305.6525523 265.86993908 304.17227482 260.79323387 304.13142776 C255.59477191 305.94655184 252.22973702 309.25986756 248.48073387 313.13142776 C247.91241844 313.7088472 247.34410301 314.28626663 246.7585659 314.88118362 C242.58920668 319.172547 238.77444033 323.68026452 235.04323387 328.35799026 C232.49335431 331.50107097 229.86686838 334.55337669 227.16823387 337.56892776 C226.30971825 338.5370137 225.45120262 339.50509964 224.56667137 340.50252151 C220.56747436 344.29330967 216.8949001 347.02081375 211.23073387 347.31892776 C183.10097958 341.70367263 153.91804091 314.17509173 133.79323387 295.13142776 C133.11260887 294.49334183 132.43198387 293.85525589 131.73073387 293.19783401 C126.60479604 288.24988014 122.21232558 282.70772843 117.79323387 277.13142776 C116.97467918 276.10662308 116.1561245 275.08181839 115.31276512 274.02595901 C109.27735073 266.38900096 103.86976412 258.43575554 98.79323387 250.13142776 C98.26197899 249.26678909 97.73072411 248.40215042 97.18337059 247.51131058 C95.41554332 244.62139233 93.66448781 241.72192665 91.91823387 238.81892776 C91.35837791 237.89990677 90.79852196 236.98088577 90.22170067 236.03401566 C86.28998394 229.42464882 82.76279245 223.26276357 82.82057762 215.42049026 C86.15563581 204.14290393 100.18970931 195.49132946 109.0476284 188.51033401 C116.07519961 182.9590442 122.7506064 177.4422592 126.04323387 168.88142776 C125.52202089 161.06323299 120.66528112 154.46000428 116.50026512 148.02986526 C112.65325401 142.0259653 109.30448584 135.81088929 105.98073387 129.50642776 C94.83659757 107.00331477 94.83659757 107.00331477 79.79323387 87.13142776 C69.10962404 85.78224943 58.97945555 88.17353642 48.79323387 91.13142776 Z " fill="#FFFFFF" transform="translate(82.20676612854004,-0.13142776489257813)"/>
</svg>
