<?xml version="1.0" encoding="UTF-8"?>
<svg version="1.1" xmlns="http://www.w3.org/2000/svg" width="512" height="512">
<path d="M0 0 C1.22417861 -0.00538554 2.44835722 -0.01077108 3.70963216 -0.01631981 C7.06808708 -0.0280544 10.42603882 -0.02657449 13.78447247 -0.019153 C17.42198098 -0.01438829 21.05943828 -0.02696024 24.69692993 -0.03717041 C31.8082898 -0.05430055 38.91956108 -0.05521036 46.03093621 -0.04995751 C51.81662576 -0.04590312 57.60228928 -0.04737437 63.3879776 -0.05270576 C64.62688567 -0.0538284 64.62688567 -0.0538284 65.89082219 -0.05497371 C67.56916482 -0.05650532 69.24750744 -0.05804367 70.92585006 -0.05958868 C86.63911032 -0.07329323 102.3523207 -0.06789083 118.0655798 -0.05640347 C132.40900713 -0.0464771 146.75230534 -0.05940507 161.09571275 -0.08333766 C175.85757178 -0.107781 190.61937082 -0.11732346 205.38124967 -0.11068493 C213.65523359 -0.10720382 221.92911834 -0.10935095 230.20308685 -0.12693596 C237.24778586 -0.14172377 244.29231586 -0.14220832 251.33701178 -0.12486505 C254.92403596 -0.11640566 258.51075912 -0.11407954 262.09776688 -0.1295166 C298.69793798 -0.27556552 329.44332803 10.52936873 356.06817627 36.2665863 C373.31015149 53.42794131 384.77962208 73.94347246 391.16192627 97.38768005 C391.33794298 98.02039495 391.51395969 98.65310985 391.69531024 99.30499792 C393.33166262 105.80720982 393.44766938 112.06477583 393.42935181 118.74473572 C393.43388292 119.96549663 393.43841403 121.18625754 393.44308245 122.44401121 C393.45351055 125.81139999 393.45505953 129.17857424 393.4526937 132.54596376 C393.4522839 136.18626191 393.46334038 139.82652875 393.47280884 143.46681213 C393.48938646 150.59206958 393.49491697 157.71729393 393.49603359 164.84256905 C393.49698589 170.63979161 393.50110525 176.4370033 393.50743484 182.23422241 C393.52504074 198.69619684 393.53427508 215.15814525 393.5327739 231.62012917 C393.53265403 232.94994479 393.53265403 232.94994479 393.53253174 234.30662537 C393.53244998 235.19426101 393.53236822 236.08189665 393.53228398 236.99643034 C393.53147193 251.36597352 393.55059082 265.73541167 393.57880847 280.1049245 C393.607601 294.88473116 393.62134518 309.66448672 393.61962092 324.44432211 C393.61895907 332.73178641 393.62436065 341.01914068 393.64597702 349.30657959 C393.66427316 356.36600609 393.66846772 363.42527272 393.65495817 370.48471278 C393.64846986 374.07981635 393.64815913 377.67461401 393.66566467 381.26968765 C393.83264936 417.89547294 383.03945753 448.64919902 357.28302002 475.29393005 C340.12186616 492.53570318 319.60609663 504.00592146 296.16192627 510.38768005 C295.52897717 510.56361869 294.89602807 510.73955733 294.24389869 510.92082745 C287.74884923 512.55435723 281.4976491 512.67612822 274.82505798 512.66183472 C273.60641377 512.6670714 272.38776955 512.67230807 271.13219672 512.67770344 C267.77060383 512.6900602 264.40922069 512.69354833 261.0476197 512.69310653 C257.41339537 512.69476226 253.77920846 512.70784313 250.14500427 512.71929932 C242.20643148 512.74209399 234.26788552 512.75006456 226.32928443 512.75512576 C221.36358543 512.75839045 216.39789412 512.76491773 211.43219948 512.77212715 C197.6593218 512.79168901 183.88645124 512.8080946 170.11355877 512.81100368 C169.23312272 512.81119125 168.35268668 512.81137882 167.44557076 512.81157208 C165.6610084 512.81193831 163.87644604 512.81230201 162.09188368 512.81266319 C160.76325032 512.81293741 160.76325032 512.81293741 159.40777588 512.81321716 C158.07750282 512.81348799 158.07750282 512.81348799 156.72035555 512.81376428 C142.3722162 512.81730075 128.02422741 512.84429196 113.67614021 512.88171505 C98.9132687 512.91990877 84.15047166 512.93916199 69.3875497 512.9394632 C61.11169677 512.94004543 52.83602329 512.9483845 44.5602169 512.97746086 C37.50853941 513.00212376 30.45710677 513.00915845 23.40539768 512.99421334 C19.8159309 512.98710365 16.22694607 512.98763961 12.6375351 513.01062393 C-19.4371815 513.20356621 -48.16980733 505.86502642 -72.83807373 484.38768005 C-73.64631592 483.70060974 -74.45455811 483.01353943 -75.28729248 482.3056488 C-96.1343891 464.14216587 -109.7181366 442.10124263 -116.83807373 415.38768005 C-117.01182451 414.75949702 -117.18557529 414.13131398 -117.36459124 413.4840951 C-119.00617309 406.97651177 -119.12383427 400.7169419 -119.10549927 394.03062439 C-119.11003038 392.80986348 -119.11456149 391.58910256 -119.11922991 390.3313489 C-119.12965802 386.96396011 -119.131207 383.59678587 -119.12884116 380.22939634 C-119.12843136 376.58909819 -119.13948784 372.94883136 -119.1489563 369.30854797 C-119.16553392 362.18329053 -119.17106443 355.05806618 -119.17218105 347.93279105 C-119.17313335 342.1355685 -119.17725271 336.33835681 -119.18358231 330.5411377 C-119.20118821 314.07916326 -119.21042254 297.61721485 -119.20892136 281.15523094 C-119.20884145 280.26868719 -119.20876153 279.38214345 -119.2086792 278.46873474 C-119.20859744 277.5810991 -119.20851568 276.69346346 -119.20843144 275.77892977 C-119.20761939 261.40938659 -119.22673828 247.03994844 -119.25495593 232.67043561 C-119.28374846 217.89062895 -119.29749264 203.11087339 -119.29576838 188.331038 C-119.29510653 180.0435737 -119.30050811 171.75621943 -119.32212448 163.46878052 C-119.34042062 156.40935402 -119.34461518 149.35008738 -119.33110563 142.29064733 C-119.32461732 138.69554376 -119.32430659 135.10074609 -119.34181213 131.50567245 C-119.51476075 93.57178057 -107.69034374 62.54948632 -80.83807373 35.38768005 C-65.65338355 20.39581133 -46.52845893 8.85142303 -25.83807373 3.38768005 C-24.92118232 3.14112276 -24.0042909 2.89456546 -23.0596149 2.64053673 C-15.25042431 0.67846417 -8.03309657 -0.0431905 0 0 Z M-3.02557373 131.01268005 C-17.37326277 149.88333579 -23.2852012 172.32640597 -20.55389404 195.83348083 C-19.11918544 205.04754105 -16.31831524 212.91930111 -12.07220459 221.17991638 C-9.24969779 226.95433083 -9.49579689 231.27286333 -10.83807373 237.38768005 C-17.01960147 271.49726119 -7.72754539 310.6058539 11.84161377 339.10643005 C12.61319314 340.20149165 13.38660177 341.29526688 14.16192627 342.38768005 C14.88637939 343.42924255 15.61083252 344.47080505 16.35723877 345.54393005 C41.01538236 379.31304873 77.58919302 399.20454292 118.45245361 405.92918396 C122.21138364 406.39379306 125.82086722 406.51711143 129.60723877 406.52049255 C130.29897186 406.52144928 130.99070496 406.52240601 131.70339966 406.52339172 C133.16060477 406.52406817 134.61781299 406.5222515 136.07501221 406.51805115 C138.26030586 406.51274469 140.44538933 406.51798889 142.63067627 406.5243988 C150.27462869 406.52575326 157.75021674 406.28930343 165.35601807 405.38841248 C169.69663902 405.38727945 172.96428329 407.1604141 176.83380127 408.97361755 C195.56856612 416.9336937 219.37663028 417.18307082 238.28692627 409.84080505 C260.42933243 400.74591279 277.98912744 386.50038361 288.16192627 364.38768005 C296.5434872 343.60123032 298.6816738 320.6323134 289.97052002 299.49705505 C289.60055908 298.6772113 289.23059814 297.85736755 288.84942627 297.01268005 C286.16236369 290.86182587 287.46226005 285.06945414 288.67779541 278.67308044 C289.6080558 272.36016364 289.40677638 265.94637679 289.41192627 259.57518005 C289.41260101 258.83058533 289.41327576 258.0859906 289.41397095 257.3188324 C289.39817859 246.37339735 288.96483165 236.02521253 286.16192627 225.38768005 C285.99031982 224.7043158 285.81871338 224.02095154 285.64190674 223.31687927 C277.58650098 191.59197028 259.24900007 162.3214469 233.16192627 142.38768005 C232.31114502 141.72123474 231.46036377 141.05478943 230.58380127 140.3681488 C205.01000385 120.95809597 173.20611429 109.89011925 141.11358643 110.18186951 C139.0319189 110.20022421 136.95069805 110.20237746 134.86895752 110.20213318 C128.89302555 110.22060216 123.03062032 110.34667974 117.09552002 111.09861755 C112.30232535 111.5925079 109.55080383 110.71271781 105.34942627 108.20018005 C68.3718178 87.61275723 23.48661212 100.27315748 -3.02557373 131.01268005 Z " fill="#FFFFFF" transform="translate(118.83807373046875,-0.3876800537109375)"/>
<path d="M0 0 C4.43157176 4.29308514 7.54211483 8.77868643 10.19921875 14.31665039 C10.53566406 14.95860352 10.87210938 15.60055664 11.21875 16.26196289 C14.23694229 22.84961546 14.33818528 30.71522561 12.61328125 37.68383789 C10.17222707 43.43935097 5.62852209 47.38821486 0.19921875 50.31665039 C-7.85782933 52.8894003 -14.65046443 52.91234436 -22.25 49.08227539 C-25.2842626 46.98198948 -27.01713967 44.74273901 -29.17578125 41.75415039 C-29.95179688 40.68938477 -30.7278125 39.62461914 -31.52734375 38.52758789 C-33.55792631 35.6596517 -35.55966001 32.7745363 -37.55078125 29.87915039 C-42.88287285 22.25316126 -47.96542821 17.57871512 -57.16015625 15.59008789 C-71.4936303 13.35977554 -86.13052238 13.80589241 -98.86328125 21.50415039 C-102.08878754 24.08772545 -103.50295044 27.01811147 -104.54296875 30.98071289 C-104.99823469 35.10569821 -104.1919338 37.93456976 -101.80078125 41.31665039 C-97.10759528 46.1257175 -90.88102369 48.15408071 -84.6484375 50.21508789 C-83.86271362 50.47559937 -83.07698975 50.73611084 -82.26745605 51.0045166 C-73.56937843 53.81620372 -64.71786169 55.83729845 -55.80078125 57.81665039 C-40.29561741 61.25837958 -24.31305305 64.81652173 -10.17578125 72.31665039 C-9.19254883 72.82518555 -9.19254883 72.82518555 -8.18945312 73.34399414 C-3.32431714 75.91480378 1.09340512 78.65671698 5.19921875 82.31665039 C5.87210938 82.88641602 6.545 83.45618164 7.23828125 84.04321289 C17.1826608 93.09371563 21.40473825 105.59529873 22.48046875 118.75805664 C22.91445762 134.94222497 18.63165326 150.15891876 8.01171875 162.62915039 C-2.88639585 173.85918726 -15.41120647 180.5406854 -30.23828125 185.06665039 C-30.88112061 185.26548828 -31.52395996 185.46432617 -32.1862793 185.66918945 C-44.09609145 189.08412637 -56.29160768 189.69443661 -68.61328125 189.62915039 C-69.31288971 189.62765991 -70.01249817 189.62616943 -70.73330688 189.62463379 C-81.36447437 189.58398445 -91.46623119 189.01109854 -101.80078125 186.31665039 C-102.90164062 186.04981445 -104.0025 185.78297852 -105.13671875 185.50805664 C-120.10418469 181.43096241 -132.10351562 174.4290338 -142.80078125 163.31665039 C-143.56132812 162.56383789 -144.321875 161.81102539 -145.10546875 161.03540039 C-154.72890073 151.0125052 -159.45479536 138.812924 -159.23828125 125.02368164 C-158.59223447 119.54958882 -156.72603816 116.13447921 -152.80078125 112.31665039 C-145.51070944 106.63286559 -138.94861688 105.52422641 -129.80078125 106.31665039 C-122.66361587 108.12229223 -117.90237096 113.4682298 -113.80078125 119.31665039 C-111.3101614 123.55938627 -109.08252267 127.93172819 -106.87890625 132.32836914 C-102.06879802 141.73750819 -96.38776132 146.34145339 -86.55078125 150.12915039 C-71.4458325 154.57333846 -53.60878979 152.74007818 -39.80078125 145.31665039 C-34.22465237 142.07707754 -31.6062591 137.36195825 -29.80078125 131.31665039 C-28.8457767 126.13234 -30.03475322 121.93382067 -32.2421875 117.27368164 C-36.50501835 111.92110456 -42.388089 109.36056339 -48.73046875 107.37524414 C-49.49946503 107.12689316 -50.2684613 106.87854218 -51.0607605 106.62266541 C-62.55856933 103.01316248 -74.34768559 100.38700206 -86.07470703 97.64208984 C-108.82096489 92.29284144 -132.78776056 84.94544222 -147.17578125 65.00415039 C-154.53774857 52.97056642 -156.12259717 39.21671597 -153.5703125 25.50024414 C-150.20429801 11.57485425 -141.80770174 -0.39612333 -129.63671875 -8.13256836 C-91.62753222 -28.91720617 -33.27801347 -30.75806315 0 0 Z " fill="#FFFFFF" transform="translate(324.80078125,172.683349609375)"/>
</svg>
